<svg xmlns="http://www.w3.org/2000/svg" width="157" viewBox="0 0 117.75 117.75" height="157" version="1.0"><defs><clipPath id="a"><path d="M 0 0 L 117.5 0 L 117.5 117.5 L 0 117.5 Z M 0 0"/></clipPath><clipPath id="b"><path d="M 31 11.773438 L 87.207031 11.773438 L 87.207031 117.5 L 31 117.5 Z M 31 11.773438"/></clipPath></defs><g clip-path="url(#a)" fill="#FFF"><path d="M 0 0 L 117.75 0 L 117.75 124.5 L 0 124.5 Z M 0 0"/><path d="M 0 0 L 117.75 0 L 117.75 117.75 L 0 117.75 Z M 0 0"/><path d="M 0 0 L 117.75 0 L 117.75 117.75 L 0 117.75 Z M 0 0"/><path d="M 117.75 58.875 C 117.75 60.804688 117.65625 62.726562 117.464844 64.644531 C 117.277344 66.566406 116.996094 68.46875 116.617188 70.359375 C 116.242188 72.253906 115.773438 74.121094 115.214844 75.964844 C 114.65625 77.8125 114.007812 79.625 113.269531 81.40625 C 112.53125 83.1875 111.707031 84.929688 110.796875 86.628906 C 109.890625 88.328125 108.898438 89.980469 107.828125 91.585938 C 106.757812 93.1875 105.609375 94.734375 104.386719 96.226562 C 103.164062 97.714844 101.871094 99.140625 100.507812 100.507812 C 99.140625 101.871094 97.714844 103.164062 96.226562 104.386719 C 94.734375 105.609375 93.1875 106.757812 91.585938 107.828125 C 89.980469 108.898438 88.328125 109.890625 86.628906 110.796875 C 84.929688 111.707031 83.1875 112.53125 81.40625 113.269531 C 79.625 114.007812 77.8125 114.65625 75.964844 115.214844 C 74.121094 115.773438 72.253906 116.242188 70.359375 116.617188 C 68.46875 116.996094 66.566406 117.277344 64.644531 117.464844 C 62.726562 117.65625 60.804688 117.75 58.875 117.75 C 56.945312 117.75 55.023438 117.65625 53.105469 117.464844 C 51.183594 117.277344 49.28125 116.996094 47.390625 116.617188 C 45.496094 116.242188 43.628906 115.773438 41.785156 115.214844 C 39.9375 114.65625 38.125 114.007812 36.34375 113.269531 C 34.5625 112.53125 32.820312 111.707031 31.121094 110.796875 C 29.421875 109.890625 27.769531 108.898438 26.164062 107.828125 C 24.5625 106.757812 23.015625 105.609375 21.523438 104.386719 C 20.035156 103.164062 18.609375 101.871094 17.242188 100.507812 C 15.878906 99.140625 14.585938 97.714844 13.363281 96.226562 C 12.140625 94.734375 10.992188 93.1875 9.921875 91.585938 C 8.851562 89.980469 7.859375 88.328125 6.953125 86.628906 C 6.042969 84.929688 5.21875 83.1875 4.480469 81.40625 C 3.742188 79.625 3.09375 77.8125 2.535156 75.964844 C 1.976562 74.121094 1.507812 72.253906 1.132812 70.359375 C 0.753906 68.46875 0.472656 66.566406 0.285156 64.644531 C 0.09375 62.726562 0 60.804688 0 58.875 C 0 56.945312 0.09375 55.023438 0.285156 53.105469 C 0.472656 51.183594 0.753906 49.28125 1.132812 47.390625 C 1.507812 45.496094 1.976562 43.628906 2.535156 41.785156 C 3.09375 39.9375 3.742188 38.125 4.480469 36.34375 C 5.21875 34.5625 6.042969 32.820312 6.953125 31.121094 C 7.859375 29.421875 8.851562 27.769531 9.921875 26.164062 C 10.992188 24.5625 12.140625 23.015625 13.363281 21.523438 C 14.585938 20.035156 15.878906 18.609375 17.242188 17.242188 C 18.609375 15.878906 20.035156 14.585938 21.523438 13.363281 C 23.015625 12.140625 24.5625 10.992188 26.164062 9.921875 C 27.769531 8.851562 29.421875 7.859375 31.121094 6.953125 C 32.820312 6.042969 34.5625 5.21875 36.34375 4.480469 C 38.125 3.742188 39.9375 3.09375 41.785156 2.535156 C 43.628906 1.976562 45.496094 1.507812 47.390625 1.132812 C 49.28125 0.753906 51.183594 0.472656 53.105469 0.285156 C 55.023438 0.09375 56.945312 0 58.875 0 C 60.804688 0 62.726562 0.09375 64.644531 0.285156 C 66.566406 0.472656 68.46875 0.753906 70.359375 1.132812 C 72.253906 1.507812 74.121094 1.976562 75.964844 2.535156 C 77.8125 3.09375 79.625 3.742188 81.40625 4.480469 C 83.1875 5.21875 84.929688 6.042969 86.628906 6.953125 C 88.328125 7.859375 89.980469 8.851562 91.585938 9.921875 C 93.1875 10.992188 94.734375 12.140625 96.226562 13.363281 C 97.714844 14.585938 99.140625 15.878906 100.507812 17.242188 C 101.871094 18.609375 103.164062 20.035156 104.386719 21.523438 C 105.609375 23.015625 106.757812 24.5625 107.828125 26.164062 C 108.898438 27.769531 109.890625 29.421875 110.796875 31.121094 C 111.707031 32.820312 112.53125 34.5625 113.269531 36.34375 C 114.007812 38.125 114.65625 39.9375 115.214844 41.785156 C 115.773438 43.628906 116.242188 45.496094 116.617188 47.390625 C 116.996094 49.28125 117.277344 51.183594 117.464844 53.105469 C 117.65625 55.023438 117.75 56.945312 117.75 58.875 Z M 117.75 58.875"/></g><g clip-path="url(#b)"><path fill="#FF914D" d="M 64.878906 125.613281 L 53.847656 125.613281 C 52.484375 125.613281 51.378906 124.507812 51.378906 123.140625 L 51.378906 81.128906 C 39.851562 76.582031 31.945312 62.960938 31.945312 47.238281 C 31.945312 37.886719 34.742188 29.070312 39.824219 22.410156 C 45.054688 15.554688 52.070312 11.773438 59.578125 11.773438 C 67.085938 11.773438 74.101562 15.554688 79.332031 22.410156 C 84.414062 29.070312 87.210938 37.886719 87.210938 47.238281 C 87.210938 55.289062 85.0625 63.167969 81.160156 69.421875 C 77.613281 75.109375 72.757812 79.265625 67.34375 81.292969 L 67.34375 123.140625 C 67.34375 124.507812 66.242188 125.613281 64.878906 125.613281 Z M 56.3125 120.671875 L 62.410156 120.671875 L 62.410156 79.503906 C 62.410156 78.394531 63.148438 77.425781 64.214844 77.125 C 74.683594 74.183594 82.28125 61.617188 82.28125 47.238281 C 82.28125 30.40625 72.097656 16.714844 59.578125 16.714844 C 47.058594 16.714844 36.875 30.40625 36.875 47.238281 C 36.875 54.28125 38.710938 61.160156 42.050781 66.605469 C 45.257812 71.832031 49.699219 75.527344 54.566406 77.015625 C 55.605469 77.332031 56.3125 78.289062 56.3125 79.378906 Z M 56.3125 120.671875"/></g></svg>